<?xml version="1.0" encoding="utf-8"?>
<!-- Svg Vector Icons : http://www.onlinewebfonts.com/icon -->
<!DOCTYPE svg PUBLIC "-//W3C//DTD SVG 1.1//EN" "http://www.w3.org/Graphics/SVG/1.1/DTD/svg11.dtd">
<svg version="1.1" xmlns="http://www.w3.org/2000/svg" xmlns:xlink="http://www.w3.org/1999/xlink" x="0px" y="0px" viewBox="0 0 1000 1000" enable-background="new 0 0 1000 1000" xml:space="preserve">
<metadata> Svg Vector Icons : http://www.onlinewebfonts.com/icon </metadata>
<g><g><g><path d="M979.3,239.1c-5.6-8.4-13.3-15.3-22.1-20.1c-8.9-4.8-19.1-7.6-29.9-7.6h-62.4v-85.3c0-56.6-46.1-102.7-102.7-102.7S659.4,69.5,659.4,126.1v85.3h-56.6v-85.3c0-56.6-46.1-102.7-102.7-102.7c-56.6,0-102.7,46.1-102.7,102.7v85.3h-56.6v-85.3c0-56.6-46.1-102.7-102.7-102.7c-56.6,0-102.7,46.1-102.7,102.7v85.3H72.8c-10.8,0-21,2.7-29.9,7.6c-8.9,4.8-16.5,11.8-22.2,20.1c-2.3,3.3-4.2,6.9-5.8,10.7c-3.2,7.5-4.9,15.8-4.9,24.5v94v545.5c0,34.7,28.1,62.8,62.8,62.8h854.4c34.7,0,62.8-28.1,62.8-62.8V368.2v-94c0-8.7-1.8-16.9-4.9-24.5C983.5,246,981.5,242.4,979.3,239.1z M921.6,908.2H78.4V431.1h843.2V908.2z M203.5,211.4v-85.3c0-18.9,15.4-34.3,34.4-34.3c18.9,0,34.4,15.4,34.4,34.3v85.3v34.2v34.2v1.9c0,18.9-15.4,34.4-34.4,34.4c-18.9,0-34.4-15.4-34.4-34.4v-1.9v-34.2V211.4z M465.6,211.4v-85.3c0-18.9,15.4-34.3,34.4-34.3c18.9,0,34.4,15.4,34.4,34.3v85.3v34.2v34.2v1.9c0,18.9-15.4,34.4-34.4,34.4c-18.9,0-34.4-15.4-34.4-34.4v-1.9v-34.2V211.4z M727.7,211.4v-85.3c0-18.9,15.4-34.3,34.4-34.3s34.4,15.4,34.4,34.3v85.3v34.2v34.2v1.9c0,18.9-15.4,34.4-34.4,34.4s-34.4-15.4-34.4-34.4v-1.9v-34.2V211.4z"/><path d="M603.3,580.1h56.4c12.6,0,22.8-10.2,22.8-22.8V501c0-12.6-10.2-22.8-22.8-22.8h-56.4c-12.6,0-22.8,10.2-22.8,22.8v56.4C580.5,569.9,590.7,580.1,603.3,580.1z"/><path d="M751.5,580.1h56.4c12.6,0,22.8-10.2,22.8-22.8V501c0-12.6-10.2-22.8-22.8-22.8h-56.4c-12.6,0-22.8,10.2-22.8,22.8v56.4C728.7,569.9,738.9,580.1,751.5,580.1z"/><path d="M603.3,719.4h56.4c12.6,0,22.8-10.2,22.8-22.8v-56.4c0-12.6-10.2-22.8-22.8-22.8h-56.4c-12.6,0-22.8,10.2-22.8,22.8v56.4C580.5,709.2,590.7,719.4,603.3,719.4z"/><path d="M751.5,719.4h56.4c12.6,0,22.8-10.2,22.8-22.8v-56.4c0-12.6-10.2-22.8-22.8-22.8h-56.4c-12.6,0-22.8,10.2-22.8,22.8v56.4C728.7,709.2,738.9,719.4,751.5,719.4z"/><path d="M317,719.4h56.4c12.6,0,22.8-10.2,22.8-22.8v-56.4c0-12.6-10.2-22.8-22.8-22.8H317c-12.6,0-22.8,10.2-22.8,22.8v56.4C294.2,709.2,304.4,719.4,317,719.4z"/><path d="M178.7,719.4h56.3c12.6,0,22.8-10.2,22.8-22.8v-56.4c0-12.6-10.2-22.8-22.8-22.8h-56.3c-12.6,0-22.8,10.2-22.8,22.8v56.4C155.9,709.2,166.1,719.4,178.7,719.4z"/><path d="M317,860h56.4c12.6,0,22.8-10.2,22.8-22.8v-56.4c0-12.6-10.2-22.8-22.8-22.8H317c-12.6,0-22.8,10.2-22.8,22.8v56.4C294.2,849.8,304.4,860,317,860z"/><path d="M178.7,860h56.3c12.6,0,22.8-10.2,22.8-22.8v-56.4c0-12.6-10.2-22.8-22.8-22.8h-56.3c-12.6,0-22.8,10.2-22.8,22.8v56.4C155.9,849.8,166.1,860,178.7,860z"/><path d="M460.4,719.4h56.3c12.6,0,22.8-10.2,22.8-22.8v-56.4c0-12.6-10.2-22.8-22.8-22.8h-56.3c-12.6,0-22.8,10.2-22.8,22.8v56.4C437.6,709.2,447.8,719.4,460.4,719.4z"/></g></g><g></g><g></g><g></g><g></g><g></g><g></g><g></g><g></g><g></g><g></g><g></g><g></g><g></g><g></g><g></g></g>
</svg>