<?xml version="1.0" encoding="utf-8"?>
<!-- Svg Vector Icons : http://www.onlinewebfonts.com/icon -->
<!DOCTYPE svg PUBLIC "-//W3C//DTD SVG 1.1//EN" "http://www.w3.org/Graphics/SVG/1.1/DTD/svg11.dtd">
<svg version="1.1" xmlns="http://www.w3.org/2000/svg" xmlns:xlink="http://www.w3.org/1999/xlink" x="0px" y="0px" viewBox="0 0 1000 1000" enable-background="new 0 0 1000 1000" xml:space="preserve">
<metadata> Svg Vector Icons : http://www.onlinewebfonts.com/icon </metadata>
<g><path d="M500,10C229.4,10,10,78.5,10,163.1v111.6c0,84.6,219.4,153.1,490,153.1s490-68.5,490-153.1V163.1C990,78.5,770.6,10,500,10z"/><path d="M500,497.8c-270.6,0-490-68.5-490-153.1v210c0,84.6,219.4,153.1,490,153.1s490-68.5,490-153.1v-210C990,429.3,770.6,497.8,500,497.8z"/><path d="M500,777.8c-270.6,0-490-68.5-490-153.1v212.2C10,921.5,229.4,990,500,990s490-68.5,490-153.1V624.7C990,709.3,770.6,777.8,500,777.8z"/></g>
</svg>