<?xml version="1.0" encoding="utf-8"?>
<!-- Svg Vector Icons : http://www.onlinewebfonts.com/icon -->
<!DOCTYPE svg PUBLIC "-//W3C//DTD SVG 1.1//EN" "http://www.w3.org/Graphics/SVG/1.1/DTD/svg11.dtd">
<svg version="1.1" xmlns="http://www.w3.org/2000/svg" xmlns:xlink="http://www.w3.org/1999/xlink" x="0px" y="0px" viewBox="0 0 1000 1000" enable-background="new 0 0 1000 1000" xml:space="preserve">
<metadata> Svg Vector Icons : http://www.onlinewebfonts.com/icon </metadata>
<g><path d="M938.4,835.3h-51.6v51.6c0,57-46.2,103.2-103.2,103.2H216.3c-57,0-103.2-46.2-103.2-103.2v-51.6H61.6c-28.5,0-51.6-23.1-51.6-51.6V474.2c0-28.5,23.1-51.6,51.6-51.6h51.6V113.2c0-57,46.2-103.2,103.2-103.2h412.6h51.6l206.3,206.3v51.6v154.7h51.6c28.5,0,51.6,23.1,51.6,51.6v309.5C990,812.2,966.9,835.3,938.4,835.3z M164.7,886.8c0,28.5,23.1,51.6,51.6,51.6h567.4c28.5,0,51.6-23.1,51.6-51.6v-51.6H164.7V886.8z M629,621.3c0-53.7-19-91.1-49.3-114.6c-28.1-22.1-64.1-32.5-119.4-32.5c-33.3,0-64.9,2.3-89.2,6.3v298.7c16.5,2.2,40.7,4.5,74.9,4.5c57.1,0,103.8-12.6,134.5-39.2C608.6,719.6,629,679.5,629,621.3z M113.2,480.6v303.1v0h64.4V673.8c5.9,0.9,13.6,1.4,22.2,1.4c38.4,0,71.2-10,93.4-32.4c17.1-17.3,26.4-42.8,26.4-72.9c0-30.1-12.3-55.6-30.7-71.1c-19.2-16.4-47.7-24.6-87.8-24.6C161.3,474.2,133.2,477,113.2,480.6z M835.3,267.9H732.1c-57,0-103.2-46.2-103.2-103.2V61.6H216.3c-28.5,0-51.6,23.1-51.6,51.6v309.5h670.5V267.9z M886.8,474.2H680.5v309.5h76.6V659.3h121.2v-57H757.1v-70.7h129.7V474.2z M255.1,571.7c0,31.5-21.3,50.1-55.9,50.1c-9.4,0-16.2-0.5-21.7-1.8v-90.7c4.7-1.4,13.6-2.7,26.9-2.7C236.8,526.6,255.1,543.5,255.1,571.7z M437.3,529.7c5.6-1.4,15.1-2.7,29.9-2.7c56.7,0,92.2,33.4,91.7,96.5c0,72.6-39,106.9-98.7,106.5c-8.2,0-17.3,0-22.9-1.4V529.7z"/></g>
</svg>