<?xml version="1.0" encoding="utf-8"?>
<!-- Svg Vector Icons : http://www.onlinewebfonts.com/icon -->
<!DOCTYPE svg PUBLIC "-//W3C//DTD SVG 1.1//EN" "http://www.w3.org/Graphics/SVG/1.1/DTD/svg11.dtd">
<svg version="1.1" xmlns="http://www.w3.org/2000/svg" xmlns:xlink="http://www.w3.org/1999/xlink" x="0px" y="0px" viewBox="0 0 1000 1000" enable-background="new 0 0 1000 1000" xml:space="preserve">
<metadata> Svg Vector Icons : http://www.onlinewebfonts.com/icon </metadata>
<g><path d="M454.1,930.6h91.9V622.5c0-50.7,41.2-91.9,91.9-91.9c50.7,0,91.9,41.2,91.9,91.9v308.1h76.6V469.2c0-50.6,41.2-91.7,91.9-91.7c50.7,0,91.9,41.1,91.9,91.7V990h-91.9H10v-29.7V683.7c0-50.7,41.2-91.8,91.9-91.8c50.7,0,91.9,41.1,91.9,91.8v246.9h76.6V530.4c0-50.6,41.2-91.6,91.9-91.6c50.7,0,91.9,41,91.9,91.6V930.6z M812.3,108.6l-114.7,47.3c-16.2-16.7-38.9-27.1-64-27.1c-31.2,0-58.6,16-74.5,40.3l-104.2-20.6c-5-44.5-42.7-79-88.5-79c-49.2,0-89.1,39.9-89.1,89.1c0,2.9,0.1,5.8,0.4,8.6l-122.5,70.7c-15.3-12.4-34.9-19.9-56.1-19.9C49.9,217.9,10,257.8,10,307c0,49.2,39.9,89.1,89.1,89.1c49.2,0,89.1-39.9,89.1-89.1c0-6.3-0.7-12.5-1.9-18.5L303,221.1c16.2,16.4,38.6,26.5,63.4,26.5c32.8,0,61.5-17.7,76.9-44.1l101.4,20.1c2.9,46.6,41.6,83.5,88.9,83.5c49.2,0,89.1-39.9,89.1-89.1c0-2.9-0.1-5.7-0.4-8.5l115.3-47.6c16.1,16.3,38.5,26.3,63.2,26.3c49.2,0,89.1-39.9,89.1-89.1c0-49.2-39.9-89.1-89.1-89.1s-89.1,39.9-89.1,89.1C811.8,102.3,812,105.5,812.3,108.6z M99.1,336.7c16.4,0,29.7-13.3,29.7-29.7c0-16.4-13.3-29.7-29.7-29.7c-16.4,0-29.7,13.3-29.7,29.7C69.4,323.4,82.7,336.7,99.1,336.7z M366.4,188.2c16.4,0,29.7-13.3,29.7-29.7c0-16.4-13.3-29.7-29.7-29.7c-16.4,0-29.7,13.3-29.7,29.7C336.7,174.9,350,188.2,366.4,188.2z M633.6,247.6c16.4,0,29.7-13.3,29.7-29.7c0-16.4-13.3-29.7-29.7-29.7c-16.4,0-29.7,13.3-29.7,29.7C603.9,234.3,617.2,247.6,633.6,247.6z M900.9,128.8c16.4,0,29.7-13.3,29.7-29.7c0-16.4-13.3-29.7-29.7-29.7s-29.7,13.3-29.7,29.7C871.2,115.5,884.5,128.8,900.9,128.8z M607.2,622.4c0-16.8,13.6-30.5,30.6-30.5c16.9,0,30.6,13.6,30.6,30.5v306.4h-61.3V622.4z M71.2,683.7c0-16.9,13.6-30.5,30.6-30.5c16.9,0,30.6,13.7,30.6,30.5v245.1H71.2V683.7z M331.6,530.8c0-17,13.6-30.8,30.6-30.8c16.9,0,30.6,13.8,30.6,30.8v397.9h-61.3V530.8z M867.5,469.4c0-16.9,13.6-30.7,30.6-30.7c16.9,0,30.6,13.6,30.6,30.7v459.3h-61.3V469.4z"/></g>
</svg>